<svg xmlns="http://www.w3.org/2000/svg" viewBox="0 0 23.81 36.19"><defs><style>.cls-1{fill:#333;}</style></defs><g id="Layer_2" data-name="Layer 2"><g id="Layer_1-2" data-name="Layer 1"><path class="cls-1" d="M11.9,0C7.72,0,4.33,3.77,4.33,8.44V17.9a.54.54,0,1,0,1.08,0V8.44c0-4,2.89-7.23,6.49-7.23s6.49,3.21,6.49,7.23V17.9a.55.55,0,1,0,1.09,0V8.44C19.48,3.77,16.09,0,11.9,0Zm-.54,33.23V35H4.87V32a.54.54,0,1,0-1.08,0v3H1.08V27.14A6.45,6.45,0,0,1,6,20.62v4.83a1.81,1.81,0,0,0-1.08,1.69A1.73,1.73,0,0,0,6.49,29a1.73,1.73,0,0,0,1.63-1.81A1.82,1.82,0,0,0,7,25.45V20.51c.73,0,.73-1.22,0-1.21-3.88,0-7,3.51-7,7.84v8.45a.57.57,0,0,0,.54.6H23.26a.58.58,0,0,0,.55-.6V27.14c0-4.33-3.15-7.84-7-7.84-.73,0-.73,1.22,0,1.21v4.28a3,3,0,0,0-2.16,3v.6a.54.54,0,1,0,1.08,0v-.6a1.63,1.63,0,1,1,3.25,0v.6a.54.54,0,1,0,1.08,0v-.6a3,3,0,0,0-2.17-3V20.62a6.44,6.44,0,0,1,4.87,6.52V35H20V32a.54.54,0,1,0-1.08,0v3h-6.5V33.26L15.12,20.1a.69.69,0,0,0,0-.2V16.7a5.7,5.7,0,0,0,1.62-4V9.05a.58.58,0,0,0-.54-.61H15.15c-1.2,0-1.65-1.39-1.65-1.39a.53.53,0,0,0-1,0S12,8.44,10.82,8.44H7.57A.57.57,0,0,0,7,9.05v3.62a5.7,5.7,0,0,0,1.62,4V19.9a.66.66,0,0,0,0,.14ZM13.19,8.45a2.44,2.44,0,0,0,2,1h.5v2.48a3.51,3.51,0,0,1-7,0V9.43h2.5A2.44,2.44,0,0,0,13.19,8.45ZM9.74,17.52a4.33,4.33,0,0,0,4.33,0v2.24a2.22,2.22,0,0,1-2.17,1.35,2.22,2.22,0,0,1-2.16-1.35Zm3.91,4.35L11.9,30.46l-1.74-8.59a3.44,3.44,0,0,0,1.74.45A3.48,3.48,0,0,0,13.65,21.87ZM6.49,26.54a.57.57,0,0,1,.55.6.55.55,0,1,1-1.09,0A.57.57,0,0,1,6.49,26.54Z"/></g></g></svg>