<svg xmlns="http://www.w3.org/2000/svg" viewBox="0 0 25.72 35.08"><defs><style>.cls-1{fill:#333;}</style></defs><g id="Layer_2" data-name="Layer 2"><g id="Layer_1-2" data-name="Layer 1"><path class="cls-1" d="M12.86,0A8.18,8.18,0,0,0,4.68,8.18v9.17a.58.58,0,1,0,1.16,0V8.18a7,7,0,0,1,14,0v9.17a.59.59,0,1,0,1.17,0V8.18A8.17,8.17,0,0,0,12.86,0Zm-.58,32.21v1.7h-7V31a.58.58,0,0,0-1.17,0v2.94H1.17v-7.6A6.39,6.39,0,0,1,6.43,20v4.67a1.75,1.75,0,1,0,2.34,1.65A1.74,1.74,0,0,0,7.6,24.67V19.88a.59.59,0,1,0,0-1.17A7.6,7.6,0,0,0,0,26.31v8.18a.58.58,0,0,0,.58.59H25.14a.58.58,0,0,0,.58-.59V26.31a7.6,7.6,0,0,0-7.6-7.6.59.59,0,1,0,0,1.17V24a2.93,2.93,0,0,0-2.34,2.86v.59a.58.58,0,0,0,1.17,0v-.59a1.76,1.76,0,0,1,3.51,0v.59a.59.59,0,1,0,1.17,0v-.59A2.93,2.93,0,0,0,19.29,24V20a6.39,6.39,0,0,1,5.26,6.32v7.6H21.63V31a.58.58,0,1,0-1.17,0v2.94h-7V32.23l2.89-12.75a.63.63,0,0,0,0-.19v-3.1a5.25,5.25,0,0,0,1.75-3.91V8.77a.59.59,0,0,0-.58-.59H16.37a2.07,2.07,0,0,1-1.79-1.35.58.58,0,0,0-.58-.4.59.59,0,0,0-.53.4,2,2,0,0,1-1.78,1.35H8.18a.59.59,0,0,0-.58.59v3.51a5.25,5.25,0,0,0,1.75,3.91v3.1a.59.59,0,0,0,0,.13ZM14,8.19a2.84,2.84,0,0,0,2.34,1.16H17v2.93a4.09,4.09,0,0,1-8.18,0V9.35h2.92A2.81,2.81,0,0,0,14,8.19ZM10.52,17a5.17,5.17,0,0,0,4.68,0v2.17a2.38,2.38,0,0,1-2.34,1.31,2.39,2.39,0,0,1-2.34-1.31Zm4.23,4.22-1.89,8.32L11,21.2a4.37,4.37,0,0,0,3.78,0ZM7,25.72a.58.58,0,0,1,.59.59.58.58,0,0,1-.59.58.57.57,0,0,1-.58-.58A.58.58,0,0,1,7,25.72Z"/></g></g></svg>